<svg xmlns="http://www.w3.org/2000/svg" data-name="Layer 27" viewBox="0 0 47.06 47.06"><path fill="#231f20" d="M44.66 13.17A23.61 23.61 0 0 0 33.91 2.41 23.54 23.54 0 0 0 2.42 33.9a23.61 23.61 0 0 0 10.77 10.77 23.56 23.56 0 0 0 20.72 0A23.7 23.7 0 0 0 44.68 33.9a23.56 23.56 0 0 0 0-20.72Zm-6.24 22.87a2.59 2.59 0 0 1-2.59 2.59h-24.6a2.6 2.6 0 0 1-2.6-2.59V14.67a2.6 2.6 0 0 1 2.6-2.59h1.73V9.74a.9.9 0 1 1 1.79 0v2.34h7.88V9.74a.9.9 0 1 1 1.79 0v2.34h7.89V9.74a.89.89 0 1 1 1.78 0v2.34h1.74a2.59 2.59 0 0 1 2.59 2.59Z"/><path fill="#231f20" d="M35.83 13.86h-1.74v1.41a.89.89 0 1 1-1.78 0v-1.41h-7.89v1.41a.9.9 0 1 1-1.79 0v-1.41h-7.88v1.41a.9.9 0 1 1-1.79 0v-1.41h-1.73a.81.81 0 0 0-.81.81v21.37a.8.8 0 0 0 .81.8h24.6a.81.81 0 0 0 .81-.8V14.67a.82.82 0 0 0-.81-.81Zm-7.44 13.55h-4v4a.9.9 0 0 1-1.79 0v-4h-4a.9.9 0 0 1 0-1.79h4v-4a.9.9 0 0 1 1.79 0v4h4a.9.9 0 1 1 0 1.79Z"/></svg>