<?xml version="1.0" encoding="utf-8"?>
<!-- Generator: Adobe Illustrator 23.0.5, SVG Export Plug-In . SVG Version: 6.00 Build 0)  -->
<svg version="1.1" id="Capa_1" xmlns="http://www.w3.org/2000/svg" xmlns:xlink="http://www.w3.org/1999/xlink" x="0px" y="0px"
	 viewBox="0 0 240 240" style="enable-background:new 0 0 240 240;" xml:space="preserve">
<style type="text/css">
	.st0{fill:#FFFFFF;}
</style>
<g id="SvgjsG1076">
	<path class="st0" d="M194.58-0.13c12.4,0,22.99,4.4,31.8,13.2c8.8,8.8,13.2,19.4,13.2,31.8v150c0,12.4-4.4,22.99-13.2,31.8
		c-8.8,8.8-19.4,13.2-31.8,13.2h-29.38v-92.97h31.09l4.69-36.25h-35.78V87.53c0-5.83,1.22-10.21,3.67-13.13
		c2.45-2.92,7.21-4.38,14.3-4.38l19.06-0.16V37.53c-6.56-0.94-15.83-1.41-27.81-1.41c-14.17,0-25.49,4.17-33.98,12.5
		c-8.49,8.33-12.73,20.1-12.73,35.31v26.72H96.46v36.25h31.25v92.97H44.58c-12.4,0-22.99-4.4-31.8-13.2s-13.2-19.4-13.2-31.8v-150
		c0-12.4,4.4-22.99,13.2-31.8s19.4-13.2,31.8-13.2H194.58z"/>
</g>
</svg>
