<?xml version="1.0" encoding="utf-8"?>
<!-- Generator: Adobe Illustrator 23.0.5, SVG Export Plug-In . SVG Version: 6.00 Build 0)  -->
<svg version="1.1" id="Capa_1" xmlns="http://www.w3.org/2000/svg" xmlns:xlink="http://www.w3.org/1999/xlink" x="0px" y="0px"
	 viewBox="0 0 240 240" style="enable-background:new 0 0 240 240;" xml:space="preserve">
<style type="text/css">
	.st0{fill:#FFFFFF;}
</style>
<g id="SvgjsG1235">
	<path class="st0" d="M119.58,90.12c-16.44,0-29.76,13.32-29.76,29.76s13.32,29.76,29.76,29.76c16.44,0,29.76-13.32,29.76-29.76
		c0,0,0,0,0,0C149.34,103.44,136.02,90.12,119.58,90.12z M238.74,60.72c-0.06-9.27-1.77-18.45-5.04-27.12
		c-4.87-12.83-15.01-22.97-27.84-27.84c-8.67-3.27-17.85-4.98-27.12-5.04c-15.48-0.84-20.04-0.84-59.16-0.84s-43.68,0-59.16,0.84
		C51.16,0.78,41.97,2.48,33.3,5.76C20.47,10.63,10.34,20.76,5.46,33.6c-3.27,8.67-4.98,17.85-5.04,27.12
		c-0.84,15.48-0.84,20.04-0.84,59.16s0,43.68,0.84,59.16c0.13,9.3,1.83,18.51,5.04,27.24c2.4,6.32,6.12,12.04,10.92,16.8
		c4.78,4.83,10.55,8.55,16.92,10.92c8.67,3.27,17.85,4.98,27.12,5.04c15.48,0.84,20.04,0.84,59.16,0.84s43.68,0,59.16-0.84
		c9.27-0.06,18.45-1.77,27.12-5.04c6.37-2.37,12.14-6.09,16.92-10.92c4.8-4.76,8.52-10.48,10.92-16.8
		c3.27-8.71,4.97-17.93,5.04-27.24c0.84-15.48,0.84-20.04,0.84-59.16S239.58,76.19,238.74,60.72z M208.26,156.72
		c-0.39,7.41-1.97,14.7-4.68,21.6c-4.71,11.63-13.93,20.85-25.56,25.56c-6.97,2.56-14.3,3.98-21.72,4.2c-9.48,0-12,0-36.72,0
		s-27.24,0-36.72,0c-7.42-0.22-14.75-1.64-21.72-4.2c-5.95-2.21-11.32-5.74-15.72-10.32c-4.35-4.3-7.71-9.51-9.84-15.24
		c-2.57-6.96-3.95-14.3-4.08-21.72c0-9.48,0-12,0-36.72s0-27.24,0-36.72c0.13-7.42,1.51-14.76,4.08-21.72
		c2.21-5.95,5.74-11.32,10.32-15.72c4.32-4.32,9.52-7.68,15.24-9.84c6.97-2.56,14.3-3.98,21.72-4.2l0,0c9.48,0,12,0,36.72,0
		s27.24,0,36.72,0c7.42,0.22,14.75,1.64,21.72,4.2c5.95,2.21,11.32,5.74,15.72,10.32c4.35,4.3,7.71,9.51,9.84,15.24
		c2.56,6.97,3.98,14.3,4.2,21.72c0,9.48,0,12,0,36.72s0.84,27.24,0.48,36.72V156.72z M189.06,67.44
		c-2.89-7.84-9.08-14.03-16.92-16.92c-5.32-1.84-10.93-2.74-16.56-2.64c-9.36,0-12,0-36,0s-26.64,0-36,0
		c-5.66,0.06-11.27,1.11-16.56,3.12c-7.72,2.76-13.88,8.7-16.92,16.32c-1.74,5.34-2.59,10.94-2.52,16.56c0,9.36,0,12,0,36
		s0,26.64,0,36c0.12,5.65,1.17,11.25,3.12,16.56c2.89,7.84,9.08,14.03,16.92,16.92c5.12,1.88,10.51,2.94,15.96,3.12l0,0
		c9.36,0,12,0,36,0s26.64,0,36,0c5.66-0.06,11.27-1.11,16.56-3.12c7.84-2.89,14.03-9.08,16.92-16.92c2.01-5.29,3.06-10.9,3.12-16.56
		c0-9.36,0-12,0-36s0-26.64,0-36c0-5.67-1.05-11.28-3.12-16.56L189.06,67.44z M119.58,165.71c-25.25,0-45.72-20.47-45.72-45.72
		c0-0.04,0-0.08,0-0.12l0,0c0-25.32,20.52-45.84,45.84-45.84c25.32,0,45.84,20.52,45.84,45.84c0,25.32-20.52,45.84-45.84,45.84
		C119.66,165.72,119.62,165.72,119.58,165.71z M167.58,83.04c-5.93-0.63-10.23-5.95-9.6-11.88c0.54-5.07,4.54-9.07,9.6-9.6l0,0
		c5.93,0.63,10.23,5.95,9.6,11.88C176.65,78.5,172.65,82.5,167.58,83.04z"/>
</g>
</svg>
