<?xml version="1.0" encoding="utf-8"?>
<!-- Generator: Adobe Illustrator 23.0.5, SVG Export Plug-In . SVG Version: 6.00 Build 0)  -->
<svg version="1.1" id="Capa_1" xmlns="http://www.w3.org/2000/svg" xmlns:xlink="http://www.w3.org/1999/xlink" x="0px" y="0px"
	 viewBox="0 0 240 240" style="enable-background:new 0 0 240 240;" xml:space="preserve">
<style type="text/css">
	.st0{fill:#239FDB;}
	.st1{fill:#FFFFFF;}
</style>
<g id="SvgjsG1053">
	<g transform="translate(5 -1031.362)">
		<circle class="st0" cx="114.58" cy="1151.24" r="120"/>
		<path class="st1" d="M46.47,1105.08l-0.11,0.15H45.6c-2.55,0-4.62,2.07-4.62,4.62v2.14l-0.25,0.32l0.25,0.2v80.26
			c0,2.55,2.07,4.62,4.62,4.62l0,0h138.18c2.55,0.01,4.62-2.06,4.62-4.61c0,0,0-0.01,0-0.01v-80.22l0.02-0.02l-0.02-0.02v-2.68
			c0-2.55-2.07-4.62-4.62-4.62c-0.01,0-0.01,0-0.02,0H46.65L46.47,1105.08L46.47,1105.08z M58.29,1114.46h112.87l-56.4,44.74
			L58.29,1114.46L58.29,1114.46z M50.2,1119.83l61.72,48.9c1.68,1.33,4.05,1.33,5.72,0l61.52-48.86v68.29H50.21L50.2,1119.83
			L50.2,1119.83z"/>
	</g>
</g>
</svg>
