<?xml version="1.0" encoding="utf-8"?>
<!-- Generator: Adobe Illustrator 23.0.5, SVG Export Plug-In . SVG Version: 6.00 Build 0)  -->
<svg version="1.1" id="Capa_1" xmlns="http://www.w3.org/2000/svg" xmlns:xlink="http://www.w3.org/1999/xlink" x="0px" y="0px"
	 viewBox="0 0 240 240" style="enable-background:new 0 0 240 240;" xml:space="preserve">
<style type="text/css">
	.st0{fill-rule:evenodd;clip-rule:evenodd;fill:#0074FF;}
</style>
<g id="SvgjsG1156">
	<path class="st0" d="M119.58,239.88c66.28,0,120-53.72,120-120s-53.72-120-120-120s-120,53.72-120,120S53.31,239.88,119.58,239.88z
		 M158.37,136.21l18.53,18.58c3.68,3.71,3.56,9.84-0.24,13.68l-5.3,5.18l-0.12-0.11c-4.44,3.41-9.72,5.57-15.29,6.24
		c-1.2,0.13-29.22,2.76-64-32.09c-25.16-25.21-34.44-43.8-31.98-64.13c0.28-2.54,0.9-5.06,1.92-7.72c1.08-2.78,2.54-5.38,4.3-7.61
		l-0.14-0.14l5.22-5.27c3.83-3.84,9.95-3.95,13.62-0.25l18.54,18.58c3.68,3.7,3.58,9.82-0.24,13.66l-3.1,3.08l-6.26,6.28
		c0.34,0.6,0.68,1.2,1.01,1.8l0.01,0.04c3.28,5.92,7.76,14,16.26,22.51c8.5,8.52,16.56,13.01,22.46,16.28l1.84,1.03l9.34-9.36
		c3.83-3.84,9.94-3.95,13.63-0.25L158.37,136.21z"/>
</g>
</svg>
