<?xml version="1.0" encoding="utf-8"?>
<!-- Generator: Adobe Illustrator 23.0.5, SVG Export Plug-In . SVG Version: 6.00 Build 0)  -->
<svg version="1.1" id="Capa_1" xmlns="http://www.w3.org/2000/svg" xmlns:xlink="http://www.w3.org/1999/xlink" x="0px" y="0px"
	 viewBox="0 0 240 240" style="enable-background:new 0 0 240 240;" xml:space="preserve">
<style type="text/css">
	.st0{fill:url(#SVGID_1_);}
	.st1{fill:url(#SVGID_2_);}
</style>
<radialGradient id="SVGID_1_" cx="123.7302" cy="180.7945" r="54.67" gradientTransform="matrix(3.8747 0 0 -3.8747 -344.8799 592.8018)" gradientUnits="userSpaceOnUse">
	<stop  offset="0" style="stop-color:#1F1F1F"/>
	<stop  offset="0.44" style="stop-color:#232222"/>
	<stop  offset="0.82" style="stop-color:#2D2B2B"/>
	<stop  offset="1" style="stop-color:#353132"/>
</radialGradient>
<path class="st0" d="M65.3-0.13h108.57c36.29,0,65.72,29.42,65.72,65.72v108.57c0,36.29-29.42,65.72-65.72,65.72H65.3
	c-36.29,0-65.72-29.42-65.72-65.72V65.59C-0.42,29.3,29.01-0.13,65.3-0.13z"/>
<linearGradient id="SVGID_2_" gradientUnits="userSpaceOnUse" x1="119.5304" y1="57.3397" x2="119.5304" y2="186.9103" gradientTransform="matrix(1 0 0 -1 0 242)">
	<stop  offset="0" style="stop-color:#D1D3D4"/>
	<stop  offset="0.15" style="stop-color:#DEE0E1"/>
	<stop  offset="0.41" style="stop-color:#F1F1F2"/>
	<stop  offset="0.69" style="stop-color:#FBFCFC"/>
	<stop  offset="1" style="stop-color:#FFFFFF"/>
</linearGradient>
<path class="st1" d="M109.7,124.52c-3.2-0.08-6.4,0.1-9.57,0.54c-9.55,2.15-15.78,11.34-14.26,21c1.44,9.76,10.19,16.74,20.03,15.96
	c9.69-0.67,17.22-8.69,17.28-18.4c0-28.52,0-57,0-85.52v-3.02h22.2c1.39,18.87,12.48,28.48,30.61,31v21.74
	c-10.86-0.13-21.42-3.58-30.26-9.88c0,1.01,0,1.74,0,2.48c0,13.99,0,27.94,0,41.89c0.6,17.75-10.42,33.83-27.2,39.68
	c-15.23,6.24-32.75,2.16-43.67-10.15c-11.7-11.32-15.08-28.76-8.45-43.63c6.75-17.22,24.25-27.73,42.62-25.61l0.81,0.19
	L109.7,124.52z"/>
</svg>
