<?xml version="1.0" encoding="utf-8"?>
<!-- Generator: Adobe Illustrator 23.0.5, SVG Export Plug-In . SVG Version: 6.00 Build 0)  -->
<svg version="1.1" id="Capa_1" xmlns="http://www.w3.org/2000/svg" xmlns:xlink="http://www.w3.org/1999/xlink" x="0px" y="0px"
	 viewBox="0 0 240 240" style="enable-background:new 0 0 240 240;" xml:space="preserve">
<style type="text/css">
	.st0{fill-rule:evenodd;clip-rule:evenodd;fill:#FFFFFF;}
	.st1{fill-rule:evenodd;clip-rule:evenodd;fill:#2D2D2D;}
</style>
<g id="SvgjsG1092">
	<path class="st0" d="M50.77-0.13H188.4c28.27,0,51.18,22.92,51.18,51.18v137.63c0,28.27-22.92,51.18-51.18,51.18H50.77
		c-28.27,0-51.19-22.92-51.19-51.18V51.06C-0.42,22.79,22.5-0.13,50.77-0.13z"/>
	<path class="st1" d="M192.58,83.47c-5.26,2.33-10.84,3.86-16.56,4.53c5.98-3.59,10.55-9.25,12.66-15.96
		c-5.65,3.35-11.83,5.72-18.28,7c-10.85-11.65-29.09-12.3-40.74-1.44c-5.87,5.47-9.2,13.14-9.18,21.17
		c-0.01,2.21,0.24,4.42,0.74,6.57c-23.19-1.16-44.8-12.11-59.45-30.13c-7.69,13.18-3.78,30.08,8.93,38.53
		c-4.59-0.14-9.07-1.39-13.08-3.62v0.35c0,13.99,9.95,25.66,23.13,28.3c-4.24,1.16-8.69,1.33-13.01,0.49
		c3.78,11.74,14.6,19.79,26.93,20.04c-12.08,9.5-27.45,13.8-42.71,11.95c12.76,8.19,27.91,12.94,44.22,12.94
		c53.08,0,82.09-43.94,82.09-82.09c0-1.23,0-2.46-0.07-3.73c5.62-4.04,10.55-9.14,14.41-14.91L192.58,83.47z"/>
</g>
</svg>
